<svg xmlns="http://www.w3.org/2000/svg" width="200" height="200" viewbox="0 0 130 210">
	<g fill="#ffffff"
		transform="matrix(9.9125,0,0,9.9125,-2.9563,-45.0175)">
		<path
			d="M7.36 6.66 c1.88 0 3.6 0.78 4.84 2 l-1.58 1.62 c-0.84 -0.84 -2 -1.36 -3.26 -1.36 c-2.54 0 -4.58 2.06 -4.58 4.6 c0 2.52 2.04 4.6 4.58 4.6 c1.26 0 2.42 -0.54 3.26 -1.36 l1.58 1.6 c-1.24 1.26 -2.96 2.02 -4.84 2.02 c-3.8 0 -6.86 -3.08 -6.86 -6.86 c0 -3.8 3.06 -6.86 6.86 -6.86 z M7.36 11.88 c0.9 0 1.62 0.74 1.62 1.64 s-0.72 1.62 -1.62 1.62 c-0.92 0 -1.64 -0.72 -1.64 -1.62 s0.72 -1.64 1.64 -1.64 z">
		</path>
	</g>
	<g fill="#ffffff" transform="matrix(1.7,0,0,1.7,36.875,166.14)">
		<path
			d="M6.45 18.25 c1.06 0 1.92 -0.44 2.5 -1.18 c0.12 -0.15 0.24 -0.18 0.4 -0.08 l1.15 0.67 c0.16 0.1 0.22 0.24 0.1 0.4 c-0.86 1.32 -2.38 2.2 -4.19 2.2 c-2.98 0 -5.16 -2.23 -5.16 -5.14 s2.18 -5.14 5.16 -5.14 c1.81 0 3.33 0.88 4.19 2.2 c0.12 0.16 0.06 0.3 -0.1 0.4 l-1.15 0.67 c-0.16 0.1 -0.28 0.07 -0.4 -0.08 c-0.58 -0.74 -1.44 -1.19 -2.5 -1.19 c-1.78 0 -3.1 1.28 -3.1 3.14 s1.32 3.13 3.1 3.13 z M18.13 5.80 c3.56 0 5.01 1.48 5.01 6.65 l0 1.19 c0 5.18 -1.45 6.66 -5.01 6.66 s-5.01 -1.48 -5.01 -6.66 l0 -1.19 c0 -5.17 1.45 -6.65 5.01 -6.65 z M18.13 7.89 c-1.99 0 -2.93 0.52 -2.93 4.56 l0 1.2 c0 4.04 0.94 4.56 2.93 4.56 s2.93 -0.52 2.93 -4.56 l0 -1.2 c0 -4.04 -0.94 -4.56 -2.93 -4.56 z M16.83 15.64 c-0.22 0 -0.33 -0.12 -0.24 -0.34 l1.88 -4.6 c0.06 -0.16 0.2 -0.24 0.36 -0.24 l0.62 0 c0.22 0 0.33 0.12 0.24 0.34 l-1.88 4.6 c-0.06 0.16 -0.2 0.24 -0.36 0.24 l-0.62 0 z M27.8 13.24 c-0.89 0 -1.61 -0.72 -1.61 -1.61 c0 -0.9 0.72 -1.63 1.61 -1.63 c0.9 0 1.62 0.73 1.62 1.63 c0 0.89 -0.72 1.61 -1.62 1.61 z M27.8 20.26 c-0.89 0 -1.61 -0.72 -1.61 -1.61 c0 -0.9 0.72 -1.63 1.61 -1.63 c0.9 0 1.62 0.73 1.62 1.63 c0 0.89 -0.72 1.61 -1.62 1.61 z M34.53 13.24 c-0.89 0 -1.61 -0.72 -1.61 -1.61 c0 -0.9 0.72 -1.63 1.61 -1.63 c0.9 0 1.62 0.73 1.62 1.63 c0 0.89 -0.72 1.61 -1.62 1.61 z M34.53 20.26 c-0.89 0 -1.61 -0.72 -1.61 -1.61 c0 -0.9 0.72 -1.63 1.61 -1.63 c0.9 0 1.62 0.73 1.62 1.63 c0 0.89 -0.72 1.61 -1.62 1.61 z">
		</path>
	</g>
</svg>